<svg width="1116" height="496" viewBox="0 0 1116 496" fill="none" xmlns="http://www.w3.org/2000/svg">
<path d="M181.1 131.455L182.439 114.907L242.341 119.753L234.965 210.93L173.078 205.923C170.189 193.586 165.295 184.085 158.394 177.42C151.613 170.653 143.258 166.868 133.33 166.065C119.54 164.95 108.868 169.916 101.312 180.964C93.8748 191.91 89.2239 208.912 87.3588 231.968C85.3867 256.348 87.2416 274.597 92.9236 286.716C98.7248 298.733 108.851 305.326 123.303 306.495C135.658 307.495 145.953 303.775 154.186 295.336C162.419 286.897 169.077 273.222 174.16 254.313L237.152 282.726C226.896 313.432 210.855 335.341 189.03 348.455C167.324 361.467 139.538 366.603 105.671 363.864C76.7675 361.526 52.3969 353.947 32.5587 341.127C12.8397 328.206 -1.51637 311.444 -10.5094 290.841C-19.4935 270.127 -22.9549 247.029 -20.8935 221.545C-18.9392 197.386 -11.8264 176.031 0.444906 157.481C12.7162 138.931 28.6705 124.954 48.3078 115.549C67.954 106.035 89.1949 102.201 112.031 104.048C125.82 105.164 138.686 108.092 150.628 112.833C162.68 117.584 172.837 123.791 181.1 131.455Z" fill="#E03F2F"/>
<path d="M523.675 222.449C524.075 247.459 518.347 269.911 506.489 289.804C494.743 309.695 478.169 325.401 456.769 336.924C435.477 348.334 411.22 354.257 383.997 354.693C357.549 355.117 333.501 349.912 311.853 339.079C290.314 328.133 273.3 312.853 260.81 293.24C248.429 273.513 242.042 251.422 241.65 226.966C241.259 202.509 246.881 180.336 258.517 160.447C270.264 140.556 286.727 124.851 307.906 113.332C329.194 101.7 353.394 95.6674 380.506 95.2332C407.951 94.7937 432.444 100.157 453.986 111.324C475.637 122.379 492.541 137.66 504.697 157.169C516.965 176.675 523.29 198.436 523.675 222.449ZM383.723 296.086C391.912 295.955 398.35 293.638 403.038 289.136C407.725 284.633 410.983 277.22 412.81 266.896C414.748 256.571 415.571 242.334 415.281 224.185C414.986 205.815 413.596 191.558 411.109 181.414C408.733 171.269 405.186 164.075 400.469 159.834C395.752 155.593 389.41 153.536 381.442 153.663C373.585 153.789 367.366 155.992 362.786 160.271C358.205 164.551 354.89 171.799 352.84 182.015C350.9 192.23 350.079 206.633 350.377 225.224C350.667 243.373 351.891 257.577 354.048 267.837C356.315 278.095 359.808 285.4 364.527 289.752C369.246 294.104 375.644 296.216 383.723 296.086Z" fill="#E9A333"/>
<path d="M712.281 141.324L710.489 124.819L770.235 118.33L780.112 209.27L718.385 215.974C713.231 204.399 706.64 195.986 698.611 190.735C690.679 185.362 681.763 183.214 671.86 184.289C658.106 185.783 648.556 192.665 643.209 204.935C637.96 217.083 636.584 234.655 639.081 257.652C641.722 281.968 646.971 299.545 654.828 310.381C662.782 321.095 673.967 325.669 688.381 324.104C700.704 322.765 710.117 317.179 716.619 307.344C723.121 297.509 727.093 282.827 728.535 263.3L795.742 279.379C791.433 311.464 779.792 335.996 760.818 352.975C741.942 369.832 715.614 380.094 681.835 383.763C653.007 386.894 627.647 384.026 605.754 375.16C583.959 366.171 566.711 352.403 554.009 333.855C541.295 315.197 533.558 293.159 530.798 267.742C528.181 243.645 531.157 221.335 539.727 200.81C548.296 180.286 561.342 163.562 578.864 150.637C596.374 137.603 616.518 129.849 639.294 127.375C653.048 125.881 666.234 126.342 678.854 128.756C691.584 131.159 702.726 135.348 712.281 141.324Z" fill="#E65A9A"/>
<path d="M1078.63 251.882C1076.71 276.821 1068.92 298.644 1055.27 317.35C1041.72 336.065 1023.76 350.165 1001.39 359.652C979.127 369.036 954.425 372.681 927.279 370.588C900.905 368.555 877.444 361.14 856.896 348.344C836.466 335.446 820.944 318.653 810.328 297.964C799.832 277.174 795.524 254.585 797.404 230.198C799.285 205.811 806.941 184.256 820.373 165.532C833.916 146.818 851.766 132.709 873.923 123.205C896.198 113.6 920.854 109.84 947.89 111.925C975.256 114.035 999.146 121.649 1019.56 134.768C1040.09 147.785 1055.5 164.569 1065.79 185.122C1076.2 205.683 1080.48 227.937 1078.63 251.882ZM932.446 312.209C940.612 312.839 947.238 311.13 952.323 307.082C957.409 303.033 961.34 295.955 964.118 285.845C967.006 275.745 969.147 261.645 970.543 243.548C971.955 225.23 971.894 210.906 970.36 200.575C968.935 190.253 966.072 182.761 961.769 178.1C957.466 173.439 951.342 170.802 943.397 170.189C935.562 169.585 929.166 171.201 924.208 175.037C919.25 178.873 915.276 185.782 912.286 195.764C909.407 205.754 907.252 220.019 905.823 238.558C904.427 256.655 904.327 270.912 905.522 281.327C906.827 291.751 909.627 299.349 913.922 304.121C918.216 308.892 924.391 311.588 932.446 312.209Z" fill="#4EA2C8"/>
</svg>
