<svg width="128" height="126" viewBox="0 0 128 126" fill="none" xmlns="http://www.w3.org/2000/svg">
<g opacity="0.6">
<path d="M57.2359 118.678C72.2122 120.546 73.5638 100.022 72.3676 89.5258C65.54 93.2208 53.5597 89.0743 48.423 86.5391C38.8461 112.275 50.3079 118.688 57.2359 118.678Z" fill="#E8842F"/>
<path d="M16.4374 29.878C7.72788 41.9699 25.058 52.9931 34.8117 56.9932C34.8019 49.2984 44.091 40.8985 48.7368 37.6603C30.7297 17.0025 19.7009 23.8647 16.4374 29.878Z" fill="#E8842F"/>
<path d="M116.258 38.6576C109.646 25.303 91.7955 35.4626 83.697 42.2117C90.5024 45.8029 93.5807 57.9426 94.2691 63.5635C120.951 57.313 120.046 44.3552 116.258 38.6576Z" fill="#E8842F"/>
<path d="M10.4435 86.3274C16.2398 100.056 34.6693 90.9895 43.1594 84.7403C36.5826 80.7458 34.2409 68.4428 33.8921 62.7907C6.88215 67.4233 7.00557 80.4121 10.4435 86.3274Z" fill="#E8842F"/>
<path d="M110.041 97.3907C119.032 85.5067 101.965 74.0795 92.3081 69.8515C92.1372 77.5444 82.6534 85.7239 77.9329 88.852C95.4498 109.927 106.637 103.326 110.041 97.3907Z" fill="#E8842F"/>
<path d="M69.5715 7.03314C54.5952 5.16507 53.2436 25.6898 54.4398 36.1856C61.2674 32.4906 73.2477 36.6372 78.3844 39.1723C87.9612 13.4365 76.4995 7.02293 69.5715 7.03314Z" fill="#E8842F"/>
<circle cx="63.6115" cy="63.612" r="21.6857" fill="#E65A9A"/>
</g>
</svg>
