<svg width="89" height="87" viewBox="0 0 89 87" fill="none" xmlns="http://www.w3.org/2000/svg">
<path d="M39.59 82.0894C49.9491 83.3815 50.884 69.1846 50.0566 61.9246C45.3339 64.4805 37.0472 61.6123 33.4941 59.8587C26.8698 77.6602 34.7979 82.0964 39.59 82.0894Z" fill="#E8842F"/>
<path d="M11.3697 20.6664C5.34529 29.0304 17.3325 36.6551 24.0791 39.422C24.0724 34.0995 30.4976 28.2893 33.7111 26.0495C21.2557 11.7605 13.627 16.507 11.3697 20.6664Z" fill="#E8842F"/>
<path d="M80.4155 26.7388C75.8417 17.5014 63.4948 24.5288 57.8931 29.1972C62.6004 31.6812 64.7296 40.0782 65.2058 43.9662C83.6618 39.6427 83.0356 30.6798 80.4155 26.7388Z" fill="#E8842F"/>
<path d="M7.22365 59.7124C11.233 69.2084 23.9806 62.9372 29.8532 58.6146C25.3041 55.8516 23.6843 47.3416 23.443 43.432C4.76025 46.6364 4.84562 55.6208 7.22365 59.7124Z" fill="#E8842F"/>
<path d="M76.1149 67.3649C82.334 59.1447 70.5292 51.2406 63.8494 48.316C63.7312 53.6372 57.1712 59.295 53.906 61.4587C66.0225 76.0363 73.7605 71.4702 76.1149 67.3649Z" fill="#E8842F"/>
<path d="M48.1224 4.86486C37.7633 3.57272 36.8284 17.7696 37.6558 25.0296C42.3785 22.4738 50.6652 25.342 54.2183 27.0955C60.8426 9.29406 52.9145 4.8578 48.1224 4.86486Z" fill="#E8842F"/>
<circle cx="44" cy="44" r="15" fill="#ADA23D"/>
</svg>
